// this file was generated from High Res Misc 2.exs using vonred's exs2sfz.py. Trickster goddess incoming.

<group>lokey=24 hikey=30 pitch_keycenter=24 pitch_keytrack=1
	<region> lovel=001 hivel=008 amp_velcurve_008=1 loop_mode=loop_sustain loop_start=18289 loop_end=28897 sample=../Audio/High Res Misc 2/(201677 3260)/ajck 24-30 1-8-5TWF.wav
	<region> lovel=009 hivel=016 amp_velcurve_016=1 loop_mode=loop_sustain loop_start=18334 loop_end=29151 sample=../Audio/High Res Misc 2/(201677 3260)/ajck 24-30 9-16-9W1V.wav
	<region> lovel=017 hivel=024 amp_velcurve_024=1 loop_mode=loop_sustain loop_start=16931 loop_end=29114 sample=../Audio/High Res Misc 2/(201677 3260)/ajck 24-30 17-24-2YUN.wav
	<region> lovel=025 hivel=032 amp_velcurve_032=1 loop_mode=loop_sustain loop_start=18509 loop_end=30831 sample=../Audio/High Res Misc 2/(201677 3260)/ajck 24-30 25-32-QZGB.wav
	<region> lovel=033 hivel=040 amp_velcurve_040=1 loop_mode=loop_sustain loop_start=17879 loop_end=30955 sample=../Audio/High Res Misc 2/(201677 3260)/ajck 24-30 33-40-KKQG.wav
	<region> lovel=041 hivel=048 amp_velcurve_048=1 loop_mode=loop_sustain loop_start=17447 loop_end=30955 sample=../Audio/High Res Misc 2/(201677 3260)/ajck 24-30 41-48-DGPW.wav
	<region> lovel=049 hivel=056 amp_velcurve_056=1 loop_mode=loop_sustain loop_start=32557 loop_end=70379 sample=../Audio/High Res Misc 2/(201677 3260)/ajck 24-30 49-56-YZKV.wav
	<region> lovel=057 hivel=064 amp_velcurve_064=1 loop_mode=loop_sustain loop_start=31610 loop_end=69432 sample=../Audio/High Res Misc 2/(201677 3260)/ajck 24-30 57-64-LLM1.wav
	<region> lovel=065 hivel=071 amp_velcurve_071=1 loop_mode=loop_sustain loop_start=28888 loop_end=66711 sample=../Audio/High Res Misc 2/(201677 3260)/ajck 24-30 65-71-MPK7.wav
	<region> lovel=072 hivel=079 amp_velcurve_079=1 loop_mode=loop_sustain loop_start=26341 loop_end=64164 sample=../Audio/High Res Misc 2/(201677 3260)/ajck 24-30 72-79-LEMI.wav
	<region> lovel=080 hivel=087 amp_velcurve_087=1 loop_mode=loop_sustain loop_start=19025 loop_end=56848 sample=../Audio/High Res Misc 2/(201677 3260)/ajck 24-30 80-87-7CBH.wav
	<region> lovel=088 hivel=095 amp_velcurve_095=1 loop_mode=loop_sustain loop_start=28275 loop_end=66097 sample=../Audio/High Res Misc 2/(201677 3260)/ajck 24-30 88-95-9WK4.wav
	<region> lovel=096 hivel=103 amp_velcurve_103=1 loop_mode=loop_sustain loop_start=33330 loop_end=71152 sample=../Audio/High Res Misc 2/(201677 3260)/ajck 24-30 96-103-HQM7.wav
	<region> lovel=104 hivel=111 amp_velcurve_111=1 loop_mode=loop_sustain loop_start=25227 loop_end=63049 sample=../Audio/High Res Misc 2/(201677 3260)/ajck 24-30 104-111-4DS7.wav
	<region> lovel=112 hivel=119 amp_velcurve_119=1 loop_mode=loop_sustain loop_start=33460 loop_end=71282 sample=../Audio/High Res Misc 2/(201677 3260)/ajck 24-30 112-119-BIAK.wav
	<region> lovel=120 hivel=127 amp_velcurve_127=1 loop_mode=loop_sustain loop_start=30482 loop_end=68304 sample=../Audio/High Res Misc 2/(201677 3260)/ajck 24-30 120-127-BC70.wav
<group>lokey=31 hikey=45 pitch_keycenter=39 pitch_keytrack=1
	<region> lovel=001 hivel=008 amp_velcurve_008=1 loop_mode=loop_sustain loop_start=18125 loop_end=29710 sample=../Audio/High Res Misc 2/(201677 3260)/ajck 31-45 1-8-9N0Z.wav
	<region> lovel=009 hivel=016 amp_velcurve_016=1 loop_mode=loop_sustain loop_start=17080 loop_end=30684 sample=../Audio/High Res Misc 2/(201677 3260)/ajck 31-45 9-16-E19R.wav
	<region> lovel=017 hivel=024 amp_velcurve_024=1 loop_mode=loop_sustain loop_start=18659 loop_end=30008 sample=../Audio/High Res Misc 2/(201677 3260)/ajck 31-45 17-24-G0VA.wav
	<region> lovel=025 hivel=032 amp_velcurve_032=1 loop_mode=loop_sustain loop_start=18044 loop_end=29378 sample=../Audio/High Res Misc 2/(201677 3260)/ajck 31-45 25-32-RC0Q.wav
	<region> lovel=033 hivel=040 amp_velcurve_040=1 loop_mode=loop_sustain loop_start=26940 loop_end=40540 sample=../Audio/High Res Misc 2/(201677 3260)/ajck 31-45 33-40-V70V.wav
	<region> lovel=041 hivel=048 amp_velcurve_048=1 loop_mode=loop_sustain loop_start=26844 loop_end=58580 sample=../Audio/High Res Misc 2/(201677 3260)/ajck 31-45 41-48-COFQ.wav
	<region> lovel=049 hivel=056 amp_velcurve_056=1 loop_mode=loop_sustain loop_start=29623 loop_end=61359 sample=../Audio/High Res Misc 2/(201677 3260)/ajck 31-45 49-56-P665.wav
	<region> lovel=057 hivel=064 amp_velcurve_064=1 loop_mode=loop_sustain loop_start=37806 loop_end=69542 sample=../Audio/High Res Misc 2/(201677 3260)/ajck 31-45 57-64-N424.wav
	<region> lovel=065 hivel=071 amp_velcurve_071=1 loop_mode=loop_sustain loop_start=25580 loop_end=57315 sample=../Audio/High Res Misc 2/(201677 3260)/ajck 31-45 65-71-VUZV.wav
	<region> lovel=072 hivel=079 amp_velcurve_079=1 loop_mode=loop_sustain loop_start=29659 loop_end=61395 sample=../Audio/High Res Misc 2/(201677 3260)/ajck 31-45 72-79-63CJ.wav
	<region> lovel=080 hivel=087 amp_velcurve_087=1 loop_mode=loop_sustain loop_start=28574 loop_end=60310 sample=../Audio/High Res Misc 2/(201677 3260)/ajck 31-45 80-87-9D7M.wav
	<region> lovel=088 hivel=095 amp_velcurve_095=1 loop_mode=loop_sustain loop_start=36703 loop_end=68439 sample=../Audio/High Res Misc 2/(201677 3260)/ajck 31-45 88-95-UUZE.wav
	<region> lovel=096 hivel=103 amp_velcurve_103=1 loop_mode=loop_sustain loop_start=23557 loop_end=55293 sample=../Audio/High Res Misc 2/(201677 3260)/ajck 31-45 96-103-4FV3.wav
	<region> lovel=104 hivel=111 amp_velcurve_111=1 loop_mode=loop_sustain loop_start=33861 loop_end=65597 sample=../Audio/High Res Misc 2/(201677 3260)/ajck 31-45 104-111-NBJG.wav
	<region> lovel=112 hivel=119 amp_velcurve_119=1 loop_mode=loop_sustain loop_start=32640 loop_end=64376 sample=../Audio/High Res Misc 2/(201677 3260)/ajck 31-45 112-119-MCFE.wav
	<region> lovel=120 hivel=127 amp_velcurve_127=1 loop_mode=loop_sustain loop_start=27575 loop_end=59311 sample=../Audio/High Res Misc 2/(201677 3260)/ajck 31-45 120-127-3AIC.wav
<group>lokey=46 hikey=60 pitch_keycenter=54 pitch_keytrack=1
	<region> lovel=001 hivel=008 amp_velcurve_008=1 loop_mode=loop_sustain loop_start=16972 loop_end=28897 sample=../Audio/High Res Misc 2/(201677 3260)/ajck 46-60 1-8-QC7T.wav
	<region> lovel=009 hivel=016 amp_velcurve_016=1 loop_mode=loop_sustain loop_start=17697 loop_end=29310 sample=../Audio/High Res Misc 2/(201677 3260)/ajck 46-60 9-16-LCML.wav
	<region> lovel=017 hivel=024 amp_velcurve_024=1 loop_mode=loop_sustain loop_start=17783 loop_end=29207 sample=../Audio/High Res Misc 2/(201677 3260)/ajck 46-60 17-24-SUTN.wav
	<region> lovel=025 hivel=032 amp_velcurve_032=1 loop_mode=loop_sustain loop_start=17231 loop_end=30569 sample=../Audio/High Res Misc 2/(201677 3260)/ajck 46-60 25-32-J2K2.wav
	<region> lovel=033 hivel=040 amp_velcurve_040=1 loop_mode=loop_sustain loop_start=18594 loop_end=29074 sample=../Audio/High Res Misc 2/(201677 3260)/ajck 46-60 33-40-3XX7.wav
	<region> lovel=041 hivel=048 amp_velcurve_048=1 loop_mode=loop_sustain loop_start=17514 loop_end=29897 sample=../Audio/High Res Misc 2/(201677 3260)/ajck 46-60 41-48-2RZP.wav
	<region> lovel=049 hivel=056 amp_velcurve_056=1 loop_mode=loop_sustain loop_start=32380 loop_end=60010 sample=../Audio/High Res Misc 2/(201677 3260)/ajck 46-60 49-56-OUDK.wav
	<region> lovel=057 hivel=064 amp_velcurve_064=1 loop_mode=loop_sustain loop_start=44017 loop_end=58307 sample=../Audio/High Res Misc 2/(201677 3260)/ajck 46-60 57-64-EDOG.wav
	<region> lovel=065 hivel=071 amp_velcurve_071=1 loop_mode=loop_sustain loop_start=30659 loop_end=43997 sample=../Audio/High Res Misc 2/(201677 3260)/ajck 46-60 65-71-2EYK.wav
	<region> lovel=072 hivel=079 amp_velcurve_079=1 loop_mode=loop_sustain loop_start=30231 loop_end=72152 sample=../Audio/High Res Misc 2/(201677 3260)/ajck 46-60 72-79-MZ10.wav
	<region> lovel=080 hivel=087 amp_velcurve_087=1 loop_mode=loop_sustain loop_start=45223 loop_end=71899 sample=../Audio/High Res Misc 2/(201677 3260)/ajck 46-60 80-87-RBD4.wav
	<region> lovel=088 hivel=095 amp_velcurve_095=1 loop_mode=loop_sustain loop_start=57723 loop_end=72013 sample=../Audio/High Res Misc 2/(201677 3260)/ajck 46-60 88-95-4FZA.wav
	<region> lovel=096 hivel=103 amp_velcurve_103=1 loop_mode=loop_sustain loop_start=29073 loop_end=69088 sample=../Audio/High Res Misc 2/(201677 3260)/ajck 46-60 96-103-BL9Q.wav
	<region> lovel=104 hivel=111 amp_velcurve_111=1 loop_mode=loop_sustain loop_start=36116 loop_end=49454 sample=../Audio/High Res Misc 2/(201677 3260)/ajck 46-60 104-111-KVDK.wav
	<region> lovel=112 hivel=119 amp_velcurve_119=1 loop_mode=loop_sustain loop_start=35945 loop_end=51188 sample=../Audio/High Res Misc 2/(201677 3260)/ajck 46-60 112-119-MRJB.wav
	<region> lovel=120 hivel=127 amp_velcurve_127=1 loop_mode=loop_sustain loop_start=23081 loop_end=64049 sample=../Audio/High Res Misc 2/(201677 3260)/ajck 46-60 120-127-H2K6.wav
<group>lokey=61 hikey=75 pitch_keycenter=69 pitch_keytrack=1
	<region> lovel=001 hivel=008 amp_velcurve_008=1 loop_mode=loop_sustain loop_start=17777 loop_end=30955 sample=../Audio/High Res Misc 2/(201677 3260)/ajck 61-75 1-8-JF1Y.wav
	<region> lovel=009 hivel=016 amp_velcurve_016=1 loop_mode=loop_sustain loop_start=18659 loop_end=28897 sample=../Audio/High Res Misc 2/(201677 3260)/ajck 61-75 9-16-29JQ.wav
	<region> lovel=017 hivel=024 amp_velcurve_024=1 loop_mode=loop_sustain loop_start=17800 loop_end=30764 sample=../Audio/High Res Misc 2/(201677 3260)/ajck 61-75 17-24-PZGR.wav
	<region> lovel=025 hivel=032 amp_velcurve_032=1 loop_mode=loop_sustain loop_start=16610 loop_end=30198 sample=../Audio/High Res Misc 2/(201677 3260)/ajck 61-75 25-32-A1FY.wav
	<region> lovel=033 hivel=040 amp_velcurve_040=1 loop_mode=loop_sustain loop_start=16634 loop_end=30648 sample=../Audio/High Res Misc 2/(201677 3260)/ajck 61-75 33-40-CL95.wav
	<region> lovel=041 hivel=048 amp_velcurve_048=1 loop_mode=loop_sustain loop_start=43298 loop_end=55310 sample=../Audio/High Res Misc 2/(201677 3260)/ajck 61-75 41-48-L1O3.wav
	<region> lovel=049 hivel=056 amp_velcurve_056=1 loop_mode=loop_sustain loop_start=21519 loop_end=71175 sample=../Audio/High Res Misc 2/(201677 3260)/ajck 61-75 49-56-3WBQ.wav
	<region> lovel=057 hivel=064 amp_velcurve_064=1 loop_mode=loop_sustain loop_start=21714 loop_end=35728 sample=../Audio/High Res Misc 2/(201677 3260)/ajck 61-75 57-64-NFCL.wav
	<region> lovel=065 hivel=071 amp_velcurve_071=1 loop_mode=loop_sustain loop_start=41524 loop_end=67953 sample=../Audio/High Res Misc 2/(201677 3260)/ajck 61-75 65-71-XGG6.wav
	<region> lovel=072 hivel=079 amp_velcurve_079=1 loop_mode=loop_sustain loop_start=33195 loop_end=71637 sample=../Audio/High Res Misc 2/(201677 3260)/ajck 61-75 72-79-W6QZ.wav
	<region> lovel=080 hivel=087 amp_velcurve_087=1 loop_mode=loop_sustain loop_start=23739 loop_end=34550 sample=../Audio/High Res Misc 2/(201677 3260)/ajck 61-75 80-87-RHMZ.wav
	<region> lovel=088 hivel=095 amp_velcurve_095=1 loop_mode=loop_sustain loop_start=34311 loop_end=70751 sample=../Audio/High Res Misc 2/(201677 3260)/ajck 61-75 88-95-JZGX.wav
	<region> lovel=096 hivel=103 amp_velcurve_103=1 loop_mode=loop_sustain loop_start=25816 loop_end=71066 sample=../Audio/High Res Misc 2/(201677 3260)/ajck 61-75 96-103-R5XS.wav
	<region> lovel=104 hivel=111 amp_velcurve_111=1 loop_mode=loop_sustain loop_start=40056 loop_end=72892 sample=../Audio/High Res Misc 2/(201677 3260)/ajck 61-75 104-111-UG76.wav
	<region> lovel=112 hivel=119 amp_velcurve_119=1 loop_mode=loop_sustain loop_start=42045 loop_end=69675 sample=../Audio/High Res Misc 2/(201677 3260)/ajck 61-75 112-119-FJW5.wav
	<region> lovel=120 hivel=127 amp_velcurve_127=1 loop_mode=loop_sustain loop_start=32010 loop_end=71253 sample=../Audio/High Res Misc 2/(201677 3260)/ajck 61-75 120-127-E6MY.wav
<group>lokey=76 hikey=90 pitch_keycenter=84 pitch_keytrack=1
	<region> lovel=001 hivel=008 amp_velcurve_008=1 loop_mode=loop_sustain loop_start=16939 loop_end=30955 sample=../Audio/High Res Misc 2/(201677 3260)/ajck 76-90 1-8-N3CL.wav
	<region> lovel=009 hivel=016 amp_velcurve_016=1 loop_mode=loop_sustain loop_start=18659 loop_end=28897 sample=../Audio/High Res Misc 2/(201677 3260)/ajck 76-90 9-16-UV26.wav
	<region> lovel=017 hivel=024 amp_velcurve_024=1 loop_mode=loop_sustain loop_start=18491 loop_end=29637 sample=../Audio/High Res Misc 2/(201677 3260)/ajck 76-90 17-24-IH5I.wav
	<region> lovel=025 hivel=032 amp_velcurve_032=1 loop_mode=loop_sustain loop_start=17099 loop_end=30191 sample=../Audio/High Res Misc 2/(201677 3260)/ajck 76-90 25-32-94FF.wav
	<region> lovel=033 hivel=040 amp_velcurve_040=1 loop_mode=loop_sustain loop_start=16745 loop_end=29020 sample=../Audio/High Res Misc 2/(201677 3260)/ajck 76-90 33-40-CHC6.wav
	<region> lovel=041 hivel=048 amp_velcurve_048=1 loop_mode=loop_sustain loop_start=29025 loop_end=49588 sample=../Audio/High Res Misc 2/(201677 3260)/ajck 76-90 41-48-0YHO.wav
	<region> lovel=049 hivel=056 amp_velcurve_056=1 loop_mode=loop_sustain loop_start=16663 loop_end=29119 sample=../Audio/High Res Misc 2/(201677 3260)/ajck 76-90 49-56-TQZ5.wav
	<region> lovel=057 hivel=064 amp_velcurve_064=1 loop_mode=loop_sustain loop_start=27898 loop_end=52476 sample=../Audio/High Res Misc 2/(201677 3260)/ajck 76-90 57-64-89WS.wav
	<region> lovel=065 hivel=071 amp_velcurve_071=1 loop_mode=loop_sustain loop_start=32102 loop_end=72841 sample=../Audio/High Res Misc 2/(201677 3260)/ajck 76-90 65-71-ZQZH.wav
	<region> lovel=072 hivel=079 amp_velcurve_079=1 loop_mode=loop_sustain loop_start=45041 loop_end=70124 sample=../Audio/High Res Misc 2/(201677 3260)/ajck 76-90 72-79-06E7.wav
	<region> lovel=080 hivel=087 amp_velcurve_087=1 loop_mode=loop_sustain loop_start=55795 loop_end=71619 sample=../Audio/High Res Misc 2/(201677 3260)/ajck 76-90 80-87-HZKP.wav
	<region> lovel=088 hivel=095 amp_velcurve_095=1 loop_mode=loop_sustain loop_start=34769 loop_end=70963 sample=../Audio/High Res Misc 2/(201677 3260)/ajck 76-90 88-95-LLCL.wav
	<region> lovel=096 hivel=103 amp_velcurve_103=1 loop_mode=loop_sustain loop_start=37125 loop_end=72814 sample=../Audio/High Res Misc 2/(201677 3260)/ajck 76-90 96-103-ST5S.wav
	<region> lovel=104 hivel=111 amp_velcurve_111=1 loop_mode=loop_sustain loop_start=29059 loop_end=72829 sample=../Audio/High Res Misc 2/(201677 3260)/ajck 76-90 104-111-SQP2.wav
	<region> lovel=112 hivel=119 amp_velcurve_119=1 loop_mode=loop_sustain loop_start=32636 loop_end=68325 sample=../Audio/High Res Misc 2/(201677 3260)/ajck 76-90 112-119-OJXV.wav
	<region> lovel=120 hivel=127 amp_velcurve_127=1 loop_mode=loop_sustain loop_start=48067 loop_end=62039 sample=../Audio/High Res Misc 2/(201677 3260)/ajck 76-90 120-127-4WAA.wav
<group>lokey=91 hikey=96 pitch_keycenter=96 pitch_keytrack=1
	<region> lovel=001 hivel=008 amp_velcurve_008=1 loop_mode=loop_sustain loop_start=16610 loop_end=30871 sample=../Audio/High Res Misc 2/(201677 3260)/ajck 91-96 1-8-K1GG.wav
	<region> lovel=009 hivel=016 amp_velcurve_016=1 loop_mode=loop_sustain loop_start=16610 loop_end=30806 sample=../Audio/High Res Misc 2/(201677 3260)/ajck 91-96 9-16-1WRJ.wav
	<region> lovel=017 hivel=024 amp_velcurve_024=1 loop_mode=loop_sustain loop_start=16694 loop_end=29384 sample=../Audio/High Res Misc 2/(201677 3260)/ajck 91-96 17-24-A5SF.wav
	<region> lovel=025 hivel=032 amp_velcurve_032=1 loop_mode=loop_sustain loop_start=18659 loop_end=28940 sample=../Audio/High Res Misc 2/(201677 3260)/ajck 91-96 25-32-7PY2.wav
	<region> lovel=033 hivel=040 amp_velcurve_040=1 loop_mode=loop_sustain loop_start=18659 loop_end=29943 sample=../Audio/High Res Misc 2/(201677 3260)/ajck 91-96 33-40-4Z67.wav
	<region> lovel=041 hivel=048 amp_velcurve_048=1 loop_mode=loop_sustain loop_start=48879 loop_end=68387 sample=../Audio/High Res Misc 2/(201677 3260)/ajck 91-96 41-48-PAFZ.wav
	<region> lovel=049 hivel=056 amp_velcurve_056=1 loop_mode=loop_sustain loop_start=39746 loop_end=56826 sample=../Audio/High Res Misc 2/(201677 3260)/ajck 91-96 49-56-TUHY.wav
	<region> lovel=057 hivel=064 amp_velcurve_064=1 loop_mode=loop_sustain loop_start=42258 loop_end=59260 sample=../Audio/High Res Misc 2/(201677 3260)/ajck 91-96 57-64-Q8MV.wav
	<region> lovel=065 hivel=071 amp_velcurve_071=1 loop_mode=loop_sustain loop_start=23015 loop_end=71497 sample=../Audio/High Res Misc 2/(201677 3260)/ajck 91-96 65-71-GFWM.wav
	<region> lovel=072 hivel=079 amp_velcurve_079=1 loop_mode=loop_sustain loop_start=37594 loop_end=50640 sample=../Audio/High Res Misc 2/(201677 3260)/ajck 91-96 72-79-WE21.wav
	<region> lovel=080 hivel=087 amp_velcurve_087=1 loop_mode=loop_sustain loop_start=19624 loop_end=32838 sample=../Audio/High Res Misc 2/(201677 3260)/ajck 91-96 80-87-T4K9.wav
	<region> lovel=088 hivel=095 amp_velcurve_095=1 loop_mode=loop_sustain loop_start=52273 loop_end=72894 sample=../Audio/High Res Misc 2/(201677 3260)/ajck 91-96 88-95-0TZV.wav
	<region> lovel=096 hivel=103 amp_velcurve_103=1 loop_mode=loop_sustain loop_start=51144 loop_end=64947 sample=../Audio/High Res Misc 2/(201677 3260)/ajck 91-96 96-103-3X2B.wav
	<region> lovel=104 hivel=111 amp_velcurve_111=1 loop_mode=loop_sustain loop_start=21186 loop_end=34989 sample=../Audio/High Res Misc 2/(201677 3260)/ajck 91-96 104-111-I47F.wav
	<region> lovel=112 hivel=119 amp_velcurve_119=1 loop_mode=loop_sustain loop_start=31109 loop_end=46343 sample=../Audio/High Res Misc 2/(201677 3260)/ajck 91-96 112-119-R0MM.wav
	<region> lovel=120 hivel=127 amp_velcurve_127=1 loop_mode=loop_sustain loop_start=39371 loop_end=64958 sample=../Audio/High Res Misc 2/(201677 3260)/ajck 91-96 120-127-6V1Y.wav
